<?xml version="1.0" standalone="no"?>
<!DOCTYPE svg PUBLIC "-//W3C//DTD SVG 20010904//EN"
 "http://www.w3.org/TR/2001/REC-SVG-20010904/DTD/svg10.dtd">
<svg version="1.0" xmlns="http://www.w3.org/2000/svg"
 width="375.000000pt" height="120.000000pt" viewBox="0 0 375.000000 120.000000"
 preserveAspectRatio="xMidYMid meet">

<g transform="translate(0.000000,120.000000) scale(0.100000,-0.100000)"
fill="#000000" stroke="none">
<path d="M1248 785 c-3 -6 -14 -38 -23 -72 l-17 -62 -82 -3 -81 -3 55 -39 c30
-22 59 -43 64 -47 4 -4 -2 -37 -14 -74 -12 -36 -20 -68 -18 -70 2 -3 29 13 59
35 29 22 58 40 62 40 5 0 34 -18 64 -40 31 -22 58 -39 60 -37 2 2 -6 30 -17
62 -11 32 -20 64 -20 71 0 7 28 32 62 56 l61 43 -81 3 -81 3 -23 71 c-14 40
-27 68 -30 63z"/>
<path d="M1550 585 l0 -165 95 0 c88 0 95 2 95 20 0 17 -8 19 -67 22 l-68 3
-3 143 -3 142 -24 0 -25 0 0 -165z"/>
<path d="M1820 712 c-67 -67 -67 -187 0 -254 33 -34 43 -38 86 -38 95 0 148
59 148 165 0 106 -53 165 -148 165 -43 0 -53 -4 -86 -38z m152 -32 c29 -29 30
-34 26 -102 -3 -62 -7 -73 -31 -94 -84 -72 -178 42 -133 160 27 70 88 86 138
36z"/>
<path d="M2179 727 c-44 -29 -69 -80 -69 -140 0 -61 19 -106 59 -140 27 -22
42 -27 90 -27 86 0 101 15 101 101 l0 69 -55 0 c-48 0 -55 -2 -55 -20 0 -16 7
-20 35 -20 34 0 35 -1 35 -39 0 -42 -11 -51 -61 -51 -18 0 -41 11 -61 29 -29
26 -32 34 -33 89 0 46 5 67 21 89 29 38 76 51 118 31 30 -15 33 -15 43 1 9 15
6 21 -17 34 -41 25 -110 22 -151 -6z"/>
<path d="M2493 730 c-85 -51 -95 -200 -18 -277 29 -29 39 -33 89 -33 48 0 60
4 90 31 77 67 75 206 -3 272 -41 34 -109 37 -158 7z m120 -41 c61 -47 55 -189
-9 -218 -40 -18 -63 -13 -95 18 -26 27 -29 36 -29 96 0 60 3 69 29 96 35 34
68 37 104 8z"/>
</g>
</svg>
